<svg width="512" height="512" viewBox="0 0 512 512" fill="none" xmlns="http://www.w3.org/2000/svg">
<g clip-path="url(#clip0_75_214)">
<path fill-rule="evenodd" clip-rule="evenodd" d="M132.34 507.693C98.5049 503.144 67.9574 493.137 43.41 468.59C18.8625 444.043 8.85588 413.495 4.30691 379.66C-0.00284386 347.605 -0.00152328 307.226 6.04209e-05 258.803V253.197C-0.00152328 204.774 -0.00284386 164.395 4.30691 132.34C8.85588 98.5049 18.8625 67.9574 43.41 43.41C67.9574 18.8625 98.5049 8.85588 132.34 4.30691C164.395 -0.00284386 204.774 -0.00152328 253.197 6.04209e-05H258.803C307.226 -0.00152328 347.605 -0.00284386 379.66 4.30691C413.495 8.85588 444.043 18.8625 468.59 43.41C493.137 67.9574 503.144 98.5049 507.693 132.34C512.003 164.395 512.002 204.774 512 253.198V258.802C512.002 307.226 512.003 347.605 507.693 379.66C503.144 413.495 493.137 444.043 468.59 468.59C444.043 493.137 413.495 503.144 379.66 507.693C347.605 512.003 307.226 512.002 258.802 512H253.198C204.774 512.002 164.395 512.003 132.34 507.693ZM71.9919 71.9919C40.4212 103.563 40.4212 154.375 40.4212 256C40.4212 357.625 40.4212 408.437 71.9919 440.008C103.563 471.579 154.375 471.579 256 471.579C357.625 471.579 408.437 471.579 440.008 440.008C471.579 408.437 471.579 357.625 471.579 256C471.579 154.375 471.579 103.563 440.008 71.9919C408.437 40.4212 357.625 40.4212 256 40.4212C154.375 40.4212 103.563 40.4212 71.9919 71.9919Z" fill="white"/>
<path d="M429.945 430.088L294.71 230.195L420.879 81.4062H376.963L275.202 201.46L194.022 81.4062H83.3553L213.709 274.093L81.4062 430.088H125.322L233.235 302.81L319.386 430.088H430.088H429.945ZM179.556 109.444L377.518 402.051H333.763L135.765 109.444H179.556Z" fill="white"/>
</g>
<defs>
<clipPath id="clip0_75_214">
<rect width="512" height="512" fill="white"/>
</clipPath>
</defs>
</svg>
